Rise.of.the.Planet.of.the.Apes.2011.BluRay.720p.DTS.x264-CHD.mkv
Format                           : Matroska
File size                        : 4.67 GiB
Duration                         : 1h 44mn
Overall bit rate                 : 6 376 Kbps
Encoded date                     : UTC 2011-11-07 07:16:27
Writing application              : mkvmerge v4.7.0 ('Just Like You Imagined') built on Apr 21 2011 01:13:14
Writing library                  : libebml v1.2.0 + libmatroska v1.1.0

Video
ID                               : 1
Format                           : AVC
Format/Info                      : Advanced Video Codec
Format profile                   : High@L4.1
Format settings, CABAC           : Yes
Format settings, ReFrames        : 12 frames
Format_Settings_GOP              : M=1, N=32
Muxing mode                      : Container profile=Unknown@4.1
Codec ID                         : V_MPEG4/ISO/AVC
Duration                         : 1h 44mn
Bit rate                         : 4 864 Kbps
Width                            : 1 280 pixels
Height                           : 544 pixels
Display aspect ratio             : 2.35:1
Frame rate                       : 23.976 fps
Resolution                       : 8 bits
Colorimetry                      : 4:2:0
Scan type                        : Progressive
Bits/(Pixel*Frame)               : 0.291
Stream size                      : 3.47 GiB (74%)
Title                            : Rise.of.the.Planet.of.the.Apes.2011.BluRay.720p.DTS.2Audio.x264-CHD
Writing library                  : x264 core 102 r1666 d058f37
Encoding settings                : cabac=1 / ref=12 / deblock=1:-3:-3 / analyse=0x3:0x113 / me=umh / 
subme=10 / psy=1 / psy_rd=1.05:0.10 / mixed_ref=1 / me_range=32 / chroma_me=1 / trellis=2 / 
8x8dct=1 / cqm=2 / deadzone=21,11 / fast_pskip=0 / chroma_qp_offset=-2 / threads=6 / 
sliced_threads=0 / nr=0 / decimate=1 / interlaced=0 / constrained_intra=0 / bframes=6 / b_pyramid=2 /
 b_adapt=2 / b_bias=0 / direct=3 / weightb=1 / open_gop=0 / weightp=2 / keyint=250 / keyint_min=25
 / scenecut=40 / intra_refresh=0 / rc_lookahead=40 / rc=2pass / mbtree=1 / bitrate=4864 / ratetol=1.0 / 
qcomp=0.60 / qpmin=10 / qpmax=51 / qpstep=4 / cplxblur=20.0 / qblur=0.5 / vbv_maxrate=50000 / 
vbv_bufsize=50000 / ip_ratio=1.40 / aq=1:0.80 / nal_hrd=none

Audio
ID                               : 2
Format                           : DTS
Format/Info                      : Digital Theater Systems
Codec ID                         : A_DTS
Duration                         : 1h 44mn
Bit rate mode                    : Constant
Bit rate                         : 1 510 Kbps
Channel(s)                       : 6 channels
Channel positions                : Front: L C R, Side: L R, LFE
Sampling rate                    : 48.0 KHz
Resolution                       : 24 bits
Stream size                      : 1.11 GiB (24%)
Title                            : Rise.of.the.Planet.of.the.Apes.2011.DTS-HD.MA.Core_1509kbps